<svg width="11" height="10" viewBox="0 0 11 10" fill="none" xmlns="http://www.w3.org/2000/svg">
<path d="M5.9414 9.06193C5.79903 9.06193 5.66178 9.01036 5.55482 8.91667C5.15084 8.56343 4.76136 8.23148 4.41773 7.93866L4.41598 7.93713C3.40852 7.0786 2.53854 6.33718 1.93323 5.60682C1.25658 4.79032 0.941406 4.01617 0.941406 3.17045C0.941406 2.34877 1.22316 1.59071 1.73471 1.03583C2.25236 0.47438 2.96266 0.165161 3.73498 0.165161C4.31222 0.165161 4.84086 0.347656 5.30617 0.707534C5.54101 0.889189 5.75387 1.11151 5.9414 1.37083C6.129 1.11151 6.34179 0.889189 6.57669 0.707534C7.04201 0.347656 7.57065 0.165161 8.14789 0.165161C8.92014 0.165161 9.63051 0.47438 10.1482 1.03583C10.6597 1.59071 10.9414 2.34877 10.9414 3.17045C10.9414 4.01617 10.6263 4.79032 9.94964 5.60674C9.34433 6.33718 8.47443 7.07852 7.46712 7.93698C7.12288 8.23026 6.73279 8.56274 6.3279 8.91682C6.22101 9.01036 6.08368 9.06193 5.9414 9.06193ZM3.73498 0.750945C3.12822 0.750945 2.57081 0.993101 2.16531 1.43286C1.75378 1.87925 1.52711 2.49632 1.52711 3.17045C1.52711 3.88174 1.79147 4.51788 2.3842 5.23305C2.95709 5.92435 3.80921 6.65052 4.79585 7.49135L4.79768 7.49288C5.1426 7.78684 5.53361 8.12009 5.94056 8.47592C6.34995 8.1194 6.74157 7.78561 7.08718 7.4912C8.07373 6.65036 8.92578 5.92435 9.49867 5.23305C10.0913 4.51788 10.3557 3.88174 10.3557 3.17045C10.3557 2.49632 10.129 1.87925 9.71748 1.43286C9.31206 0.993101 8.75458 0.750945 8.14789 0.750945C7.7034 0.750945 7.29531 0.892241 6.93497 1.17087C6.61385 1.41928 6.39016 1.7333 6.25901 1.95303C6.19156 2.06602 6.07285 2.13346 5.9414 2.13346C5.80994 2.13346 5.69123 2.06602 5.62379 1.95303C5.49271 1.7333 5.26902 1.41928 4.94782 1.17087C4.58749 0.892241 4.17939 0.750945 3.73498 0.750945Z" fill="white"/>
</svg>
