<svg width="10" height="11" viewBox="0 0 10 11" fill="none" xmlns="http://www.w3.org/2000/svg">
<path d="M7.87109 7.10266C7.29227 7.10266 6.77795 7.38395 6.45746 7.81694L3.69828 6.40688C3.74457 6.24961 3.76953 6.08331 3.76953 5.91125C3.76953 5.67823 3.72385 5.45571 3.64113 5.25202L6.53293 3.51456C6.85559 3.89327 7.33574 4.13391 7.87109 4.13391C8.84035 4.13391 9.62891 3.34536 9.62891 2.3761C9.62891 1.40684 8.84035 0.618286 7.87109 0.618286C6.90184 0.618286 6.11328 1.40684 6.11328 2.3761C6.11328 2.60012 6.15549 2.81444 6.23223 3.01165L3.3332 4.75344C3.01078 4.3859 2.53791 4.15344 2.01172 4.15344C1.04246 4.15344 0.253906 4.942 0.253906 5.91125C0.253906 6.88051 1.04246 7.66907 2.01172 7.66907C2.60004 7.66907 3.12172 7.37852 3.44096 6.9334L6.19213 8.33936C6.1409 8.50409 6.11328 8.67911 6.11328 8.86047C6.11328 9.82973 6.90184 10.6183 7.87109 10.6183C8.84035 10.6183 9.62891 9.82973 9.62891 8.86047C9.62891 7.89122 8.84035 7.10266 7.87109 7.10266ZM7.87109 1.20422C8.51727 1.20422 9.04297 1.72993 9.04297 2.3761C9.04297 3.02227 8.51727 3.54797 7.87109 3.54797C7.22492 3.54797 6.69922 3.02227 6.69922 2.3761C6.69922 1.72993 7.22492 1.20422 7.87109 1.20422ZM2.01172 7.08313C1.36555 7.08313 0.839844 6.55743 0.839844 5.91125C0.839844 5.26508 1.36555 4.73938 2.01172 4.73938C2.65789 4.73938 3.18359 5.26508 3.18359 5.91125C3.18359 6.55743 2.65789 7.08313 2.01172 7.08313ZM7.87109 10.0323C7.22492 10.0323 6.69922 9.50665 6.69922 8.86047C6.69922 8.2143 7.22492 7.6886 7.87109 7.6886C8.51727 7.6886 9.04297 8.2143 9.04297 8.86047C9.04297 9.50665 8.51727 10.0323 7.87109 10.0323Z" fill="black"/>
</svg>
