<svg width="25" height="19" viewBox="0 0 25 19" fill="none" xmlns="http://www.w3.org/2000/svg">
<path d="M4.91992 9.04907H11.0605C11.6004 9.04907 12.0933 9.25317 12.4668 9.5879C12.8403 9.25312 13.3332 9.04907 13.873 9.04907H20.0137V1.50853C20.0137 1.12204 19.7044 0.800432 19.318 0.799072C19.3121 0.799072 19.5579 0.799072 5.62305 0.799072C5.22292 0.799072 4.91992 1.1271 4.91992 1.50853V9.04907Z" fill="#666666"/>
<path d="M13.1699 11.1584V12.7991H20.0137C20.0137 11.7605 20.0137 11.5472 20.0137 10.4553H13.873C13.4853 10.4553 13.1699 10.7707 13.1699 11.1584Z" fill="#666666"/>
<path d="M22.194 5.67515C21.7606 5.68865 21.4199 6.05221 21.4199 6.4858C21.4199 6.59708 21.4199 13.9016 21.4199 13.5022C21.4199 13.8905 21.1051 14.2053 20.7168 14.2053C20.1547 14.2053 3.68303 14.2053 4.2168 14.2053C3.82848 14.2053 3.51367 13.8905 3.51367 13.5022C3.51367 13.2428 3.51367 6.41816 3.51367 6.4858C3.51367 6.05221 3.17303 5.68865 2.73962 5.67515C1.49041 5.63624 0.466797 6.63561 0.466797 7.87719V15.0959C0.466797 16.2609 1.41119 17.2053 2.57617 17.2053H3.51367V17.9823C3.51367 18.3609 3.80463 18.6867 4.18281 18.7045C4.58659 18.7236 4.91992 18.4018 4.91992 18.0022V17.2053H20.0137V17.9823C20.0137 18.3609 20.3046 18.6867 20.6828 18.7045C21.0866 18.7236 21.4199 18.4018 21.4199 18.0022V17.2053H22.3574C23.5224 17.2053 24.4668 16.2609 24.4668 15.0959V7.9168C24.4668 6.61879 23.4352 5.63647 22.194 5.67515Z" fill="#666666"/>
<path d="M11.7637 11.1584C11.7637 10.7707 11.4482 10.4553 11.0605 10.4553H4.91992V12.7991H11.7637V11.1584Z" fill="#666666"/>
</svg>
