<svg width="25" height="19" viewBox="0 0 25 19" fill="none" xmlns="http://www.w3.org/2000/svg">
<path d="M20.0874 7.3104C20.3683 7.3104 20.596 7.08271 20.596 6.80181V5.17036C20.596 4.88946 20.3683 4.66177 20.0874 4.66177L19.3636 4.66618L16.9883 7.3104H20.0874Z" fill="#666666"/>
<path d="M4.84257 7.31022H7.96608L5.54964 4.66168H4.84257C4.56167 4.66168 4.33398 4.88937 4.33398 5.17027V6.80159C4.33398 7.08254 4.56167 7.31022 4.84257 7.31022Z" fill="#666666"/>
<path d="M12.7573 9.93298L17.4705 4.66177H7.46094L12.2516 9.935C12.3874 10.0845 12.6227 10.0836 12.7573 9.93298Z" fill="#666666"/>
<path d="M14.0849 17.351H13.2093V11.4323C12.9993 11.5536 12.7593 11.6198 12.5117 11.6208C12.5098 11.6208 12.508 11.6208 12.5061 11.6208C12.2567 11.6208 12.0146 11.5545 11.8029 11.4323V17.351H10.8477C10.4594 17.351 10.1445 17.6658 10.1445 18.0541C10.1445 18.4425 10.4594 18.7573 10.8477 18.7573H14.0849C14.4733 18.7573 14.7881 18.4425 14.7881 18.0541C14.7881 17.6658 14.4732 17.351 14.0849 17.351Z" fill="#666666"/>
<path d="M6.39649 9.26667H1.87315V0.931508C1.87315 0.543168 1.55831 0.228333 1.16997 0.228333C0.781632 0.228333 0.466797 0.543168 0.466797 0.931508V18.1104C0.466797 18.4988 0.781632 18.8136 1.16997 18.8136C1.55831 18.8136 1.87315 18.4988 1.87315 18.1104V12.8581H6.98585V18.1104C6.98585 18.4988 7.30068 18.8136 7.68902 18.8136C8.07736 18.8136 8.3922 18.4988 8.3922 18.1104V11.2624C8.3922 10.1619 7.49691 9.26667 6.39649 9.26667Z" fill="#666666"/>
<path d="M23.7639 0.228333C23.3756 0.228333 23.0607 0.543168 23.0607 0.931508V9.26667H18.6422C17.5417 9.26667 16.6465 10.162 16.6465 11.2624V18.1104C16.6465 18.4988 16.9613 18.8136 17.3497 18.8136C17.738 18.8136 18.0528 18.4988 18.0528 18.1104V12.8569H23.0608V18.1104C23.0608 18.4988 23.3756 18.8136 23.764 18.8136C24.1523 18.8136 24.4671 18.4988 24.4671 18.1104V0.931508C24.4671 0.543168 24.1523 0.228333 23.7639 0.228333Z" fill="#666666"/>
</svg>
