<svg width="25" height="20" viewBox="0 0 25 20" fill="none" xmlns="http://www.w3.org/2000/svg">
<path d="M2.45861 11.5139H22.4752C23.3002 11.5139 23.9689 10.8451 23.9689 10.0201C23.9689 9.19513 23.3002 8.52637 22.4752 8.52637H2.45861C1.63361 8.52637 0.964844 9.19513 0.964844 10.0201C0.964797 10.8451 1.63361 11.5139 2.45861 11.5139Z" fill="#666666"/>
<path d="M13.9606 5.30438C13.5246 5.30438 13.1699 5.65904 13.1699 6.09502V7.12004H19.2889V6.09502C19.2889 5.65904 18.9343 5.30438 18.4983 5.30438H13.9606Z" fill="#666666"/>
<path d="M4.23733 6.09508C4.23733 4.88369 5.22283 3.89819 6.43422 3.89819H10.972C11.5484 3.89819 12.0734 4.12169 12.4657 4.48619C12.858 4.12169 13.383 3.89819 13.9595 3.89819H18.4972C19.7086 3.89819 20.6941 4.88369 20.6941 6.09508V7.12009H22.9764V2.27697C22.9764 1.45197 22.3076 0.783203 21.4826 0.783203H3.44884C2.62384 0.783203 1.95508 1.45197 1.95508 2.27697V7.12009H4.23733V6.09508Z" fill="#666666"/>
<path d="M6.43517 5.30438C5.99919 5.30438 5.64453 5.65904 5.64453 6.09502V7.12004H11.7635V6.09502C11.7635 5.65904 11.4089 5.30438 10.9729 5.30438H6.43517Z" fill="#666666"/>
<path d="M0.466797 12.9201V19.3897H1.87305V16.8257H23.0605V19.3897H24.4668V12.9201H0.466797Z" fill="#666666"/>
</svg>
