<svg width="16" height="12" viewBox="0 0 16 12" fill="none" xmlns="http://www.w3.org/2000/svg">
<path d="M15.7821 5.94015L11.0208 1.17881C10.7303 0.888312 10.2591 0.888312 9.96863 1.17881C9.67807 1.46937 9.67807 1.94039 9.96863 2.23095L13.4599 5.72226H0.743959C0.333115 5.72226 0 6.05538 0 6.46622C0 6.877 0.333115 7.21018 0.743959 7.21018H13.4599L9.96875 10.7015C9.67819 10.9921 9.67819 11.4631 9.96875 11.7536C10.114 11.8988 10.3044 11.9715 10.4948 11.9715C10.6852 11.9715 10.8756 11.8988 11.0209 11.7536L15.7821 6.99229C16.0727 6.70173 16.0727 6.23071 15.7821 5.94015Z" fill="white"/>
</svg>
