<svg width="107" height="38" viewBox="0 0 107 38" fill="none" xmlns="http://www.w3.org/2000/svg">
<path d="M13.0517 0.294189H4.77051C4.20372 0.294189 3.72183 0.836859 3.6334 1.57429L0.284087 29.5572C0.217471 30.1091 0.542061 30.6071 0.967017 30.6071H4.9206C5.48729 30.6071 5.96918 30.0646 6.05761 29.3258L6.96091 21.7785C7.04815 21.0395 7.53123 20.497 8.09673 20.497H10.7183C16.1734 20.497 19.3217 17.0184 20.1439 10.1252C20.5144 7.10938 20.1596 4.73989 19.088 3.08043C17.911 1.25801 15.8234 0.294189 13.0517 0.294189ZM14.0071 10.5146C13.5543 14.4303 11.2838 14.4303 9.08846 14.4303H7.83885L8.7155 7.11747C8.76762 6.67541 9.05816 6.34991 9.39726 6.34991H9.96996C11.4654 6.34991 12.8762 6.34991 13.6051 7.47313C14.0398 8.14341 14.173 9.13905 14.0071 10.5146Z" fill="#283B82"/>
<path d="M37.8053 10.3884H33.8398C33.502 10.3884 33.2102 10.7139 33.1579 11.156L32.9826 12.6176L32.7052 12.0877C31.8467 10.4458 29.9321 9.89697 28.0214 9.89697C23.6392 9.89697 19.8964 14.2706 19.1674 20.4059C18.7885 23.4664 19.3273 26.3929 20.6447 28.4336C21.8532 30.31 23.5823 31.0919 25.6397 31.0919C29.1707 31.0919 31.1287 28.1003 31.1287 28.1003L30.9518 29.5523C30.8851 30.1076 31.2098 30.6054 31.6324 30.6054H35.2043C35.7723 30.6054 36.2518 30.0628 36.3415 29.3242L38.4847 11.4383C38.5526 10.8878 38.2292 10.3884 37.8053 10.3884ZM32.2777 20.5592C31.8952 23.5445 30.0969 25.5489 27.8036 25.5489C26.6521 25.5489 25.7317 25.0621 25.1407 24.1398C24.5547 23.2238 24.3318 21.9202 24.5184 20.4681C24.8755 17.5082 26.7041 15.4387 28.9622 15.4387C30.0885 15.4387 31.0039 15.9317 31.6069 16.8619C32.2112 17.8017 32.4508 19.1134 32.2777 20.5592Z" fill="#283B82"/>
<path d="M58.9256 10.3884H54.9406C54.5604 10.3884 54.2032 10.6374 53.9876 11.0539L48.4914 21.7225L46.1617 11.4703C46.0152 10.8288 45.566 10.3884 45.0574 10.3884H41.1414C40.6654 10.3884 40.335 11.0011 40.4863 11.5915L44.8757 28.5661L40.749 36.2429C40.4244 36.8475 40.7513 37.6792 41.3122 37.6792H45.2924C45.6701 37.6792 46.0238 37.4365 46.238 37.028L59.4923 11.8166C59.8096 11.2133 59.4839 10.3884 58.9256 10.3884Z" fill="#283B82"/>
<path d="M72.12 0.294189H63.8376C63.2722 0.294189 62.7901 0.836859 62.7017 1.57429L59.3524 29.5572C59.286 30.1091 59.6104 30.6071 60.033 30.6071H64.2833C64.6779 30.6071 65.0159 30.2275 65.0776 29.7104L66.028 21.7785C66.1152 21.0395 66.5985 20.497 67.1639 20.497H69.7843C75.2404 20.497 78.3876 17.0184 79.211 10.1252C79.5829 7.10938 79.2257 4.73989 78.1539 3.08043C76.9781 1.25801 74.8918 0.294189 72.12 0.294189ZM73.0755 10.5146C72.6238 14.4303 70.3536 14.4303 68.1568 14.4303H66.9085L67.7864 7.11747C67.8385 6.67541 68.1265 6.34991 68.4668 6.34991H69.0395C70.5339 6.34991 71.9457 6.34991 72.6746 7.47313C73.1094 8.14341 73.2413 9.13905 73.0755 10.5146Z" fill="#469BDB"/>
<path d="M96.8726 10.3884H92.9094C92.5691 10.3884 92.2795 10.7139 92.2288 11.156L92.0532 12.6176L91.7748 12.0877C90.9163 10.4458 89.003 9.89697 87.0923 9.89697C82.7099 9.89697 78.9685 14.2706 78.2393 20.4059C77.8616 23.4664 78.398 26.3929 79.7155 28.4336C80.9265 30.31 82.653 31.0919 84.7103 31.0919C88.2413 31.0919 90.1993 28.1003 90.1993 28.1003L90.0224 29.5523C89.956 30.1076 90.2804 30.6054 90.7056 30.6054H94.2764C94.8419 30.6054 95.3239 30.0628 95.4123 29.3242L97.5568 11.4383C97.622 10.8878 97.2976 10.3884 96.8726 10.3884ZM91.3448 20.5592C90.9645 23.5445 89.1639 25.5489 86.8707 25.5489C85.7214 25.5489 84.7987 25.0621 84.2078 24.1398C83.6219 23.2238 83.4014 21.9202 83.5856 20.4681C83.9451 17.5082 85.7712 15.4387 88.0296 15.4387C89.1556 15.4387 90.0709 15.9317 90.674 16.8619C91.2806 17.8017 91.5203 19.1134 91.3448 20.5592Z" fill="#469BDB"/>
<path d="M101.548 1.0619L98.1493 29.5572C98.0828 30.1091 98.4072 30.6071 98.8299 30.6071H102.247C102.815 30.6071 103.297 30.0646 103.384 29.3258L106.736 1.34455C106.802 0.792233 106.478 0.292847 106.055 0.292847H102.229C101.891 0.29418 101.6 0.620111 101.548 1.0619Z" fill="#469BDB"/>
</svg>
