<svg width="91" height="33" viewBox="0 0 91 33" fill="none" xmlns="http://www.w3.org/2000/svg">
<g clip-path="url(#clip0_34_108)">
<path d="M33.5977 30.7461L38.1488 5.14612H45.2599L40.851 30.7461H33.5977Z" fill="#3C58BF"/>
<path d="M33.5977 30.7461L39.4288 5.14612H45.2599L40.851 30.7461H33.5977Z" fill="#293688"/>
<path d="M66.592 5.4305C65.1698 4.86161 62.8943 4.29272 60.0498 4.29272C52.9387 4.29272 47.8187 7.84828 47.8187 12.9683C47.8187 16.8083 51.3743 18.7994 54.2187 20.0794C57.0631 21.3594 57.9165 22.2127 57.9165 23.3505C57.9165 25.0572 55.6409 25.9105 53.6498 25.9105C50.8054 25.9105 49.2409 25.4838 46.8231 24.4883L45.8276 24.0616L44.832 29.8927C46.5387 30.6038 49.6676 31.3149 52.9387 31.3149C60.4765 31.3149 65.4543 27.7594 65.4543 22.3549C65.4543 19.3683 63.6054 17.0927 59.3387 15.2438C56.7787 13.9638 55.2143 13.2527 55.2143 11.9727C55.2143 10.8349 56.4943 9.69717 59.3387 9.69717C61.7565 9.69717 63.4631 10.1238 64.7431 10.6927L65.4543 10.9772L66.592 5.4305Z" fill="#3C58BF"/>
<path d="M66.592 5.4305C65.1698 4.86161 62.8943 4.29272 60.0498 4.29272C52.9387 4.29272 49.0987 7.84828 49.0987 12.9683C49.0987 16.8083 51.3743 18.7994 54.2187 20.0794C57.0631 21.3594 57.9165 22.2127 57.9165 23.3505C57.9165 25.0572 55.6409 25.9105 53.6498 25.9105C50.8054 25.9105 49.2409 25.4838 46.8231 24.4883L45.8276 24.0616L44.832 29.8927C46.5387 30.6038 49.6676 31.3149 52.9387 31.3149C60.4765 31.3149 65.4543 27.7594 65.4543 22.3549C65.4543 19.3683 63.6054 17.0927 59.3387 15.2438C56.7787 13.9638 55.2143 13.2527 55.2143 11.9727C55.2143 10.8349 56.4943 9.69717 59.3387 9.69717C61.7565 9.69717 63.4631 10.1238 64.7431 10.6927L65.4543 10.9772L66.592 5.4305Z" fill="#293688"/>
<path d="M78.8234 5.14612C77.1168 5.14612 75.8368 5.28834 75.1256 6.99501L64.459 30.7461H72.139L73.5612 26.4795H82.6634L83.5168 30.7461H90.3434L84.3701 5.14612H78.8234ZM75.5523 22.2128C75.979 20.9328 78.3968 14.675 78.3968 14.675C78.3968 14.675 78.9656 13.1106 79.3923 12.115L79.819 14.5328C79.819 14.5328 81.2412 20.9328 81.5256 22.355H75.5523V22.2128Z" fill="#3C58BF"/>
<path d="M80.5301 5.14612C78.8234 5.14612 77.5434 5.28834 76.8323 6.99501L64.459 30.7461H72.139L73.5612 26.4795H82.6634L83.5168 30.7461H90.3434L84.3701 5.14612H80.5301ZM75.5523 22.2128C76.1212 20.7906 78.3968 14.675 78.3968 14.675C78.3968 14.675 78.9656 13.1106 79.3923 12.115L79.819 14.5328C79.819 14.5328 81.2412 20.9328 81.5256 22.355H75.5523V22.2128Z" fill="#293688"/>
<path d="M20.5124 23.0661L19.8013 19.3683C18.5213 15.1017 14.3968 10.4083 9.8457 8.13277L16.2457 30.8883H23.9257L35.4457 5.28833H27.7657L20.5124 23.0661Z" fill="#3C58BF"/>
<path d="M20.5124 23.0661L19.8013 19.3683C18.5213 15.1017 14.3968 10.4083 9.8457 8.13277L16.2457 30.8883H23.9257L35.4457 5.28833H29.1879L20.5124 23.0661Z" fill="#293688"/>
<path d="M0.744141 5.14612L2.02414 5.43056C11.1264 7.5639 17.3841 12.9683 19.8019 19.3683L17.2419 7.27945C16.8153 5.57278 15.5353 5.14612 13.9708 5.14612H0.744141Z" fill="#FFBC00"/>
<path d="M0.744141 5.14612C9.84636 7.27945 17.3841 12.8261 19.8019 19.2261L17.3841 9.12834C16.9575 7.42167 15.5353 6.42612 13.9708 6.42612L0.744141 5.14612Z" fill="#F7981D"/>
<path d="M0.744141 5.14612C9.84636 7.27945 17.3841 12.8261 19.8019 19.2261L18.0953 13.6795C17.6686 11.9728 17.0997 10.2661 15.1086 9.55501L0.744141 5.14612Z" fill="#ED7C00"/>
<path d="M27.6238 22.2127L22.7883 17.3771L20.5127 22.7816L19.9438 19.226C18.6638 14.9594 14.5394 10.266 9.98828 7.99048L16.3883 30.746H24.0683L27.6238 22.2127Z" fill="#051244"/>
<path d="M40.849 30.7462L34.7335 24.4884L33.5957 30.7462H40.849Z" fill="#051244"/>
<path d="M57.2054 21.9283C57.7743 22.4972 58.0587 22.9239 57.9165 23.4928C57.9165 25.1995 55.6409 26.0528 53.6498 26.0528C50.8054 26.0528 49.2409 25.6261 46.8231 24.6306L45.8276 24.2039L44.832 30.035C46.5387 30.7461 49.6676 31.4572 52.9387 31.4572C57.4898 31.4572 61.1876 30.1772 63.3209 27.9017L57.2054 21.9283Z" fill="#051244"/>
<path d="M65.4551 30.7459H72.1395L73.5617 26.4792H82.664L83.5173 30.7459H90.344L87.9262 20.3636L79.3929 12.1147L79.8195 14.3903C79.8195 14.3903 81.2417 20.7903 81.5262 22.2125H75.5529C76.1217 20.7903 78.3973 14.6747 78.3973 14.6747C78.3973 14.6747 78.9662 13.1103 79.3929 12.1147" fill="#051244"/>
</g>
<defs>
<clipPath id="clip0_34_108">
<rect width="89.6" height="32" fill="white" transform="translate(0.744141 0.986084)"/>
</clipPath>
</defs>
</svg>
