<svg width="98" height="42" viewBox="0 0 98 42" fill="none" xmlns="http://www.w3.org/2000/svg">
<g clip-path="url(#clip0_34_137)">
<path d="M7.13664 16.5456C7.13664 15.4986 7.9958 15.0958 9.41906 15.0958C11.4595 15.0958 14.037 15.7135 16.0775 16.8143V10.5045C13.8491 9.61851 11.6475 9.26945 9.41906 9.26945C3.96844 9.26945 0.34375 12.1156 0.34375 16.8681C0.34375 24.2783 10.5465 23.0971 10.5465 26.2923C10.5465 27.5271 9.47268 27.93 7.969 27.93C5.74057 27.93 2.89443 27.017 0.639011 25.782V32.1722C3.13608 33.2462 5.65996 33.7025 7.969 33.7025C13.5537 33.7025 17.3932 30.9371 17.3932 26.131C17.3664 18.1299 7.13664 19.5528 7.13664 16.5456ZM25.2869 3.89962L18.7356 5.29569L18.7088 26.8022C18.7088 30.7761 21.6892 33.7025 25.6629 33.7025C27.8646 33.7025 29.4755 33.2998 30.3614 32.8165V27.3661C29.5025 27.7151 25.2601 28.9502 25.2601 24.9764V15.4448H30.3614V9.72593H25.2601L25.2869 3.89962ZM38.7118 11.7127L38.2821 9.72593H32.4826V33.2192H39.1951V17.2976C40.779 15.2302 43.4641 15.606 44.2965 15.9013V9.72593C43.4373 9.40367 40.2959 8.81296 38.7118 11.7127ZM45.9342 9.72593H52.6735V33.2192H45.9342V9.72593ZM45.9342 7.68534L52.6735 6.23547V0.785034L45.9342 2.2081V7.68516V7.68534ZM66.6889 9.26945C64.0576 9.26945 62.3661 10.5045 61.4265 11.3638L61.0773 9.69912H55.1705V41.0055L61.8828 39.5826L61.9098 31.9842C62.8764 32.6823 64.2993 33.6757 66.6621 33.6757C71.4682 33.6757 75.8447 29.8093 75.8447 21.2981C75.8179 13.5117 71.3876 9.26945 66.6889 9.26945ZM65.078 27.7688C63.4939 27.7688 62.554 27.205 61.9098 26.5069L61.8828 16.5456C62.581 15.7671 63.5475 15.2302 65.078 15.2302C67.5213 15.2302 69.2128 17.9687 69.2128 21.486C69.2128 25.0838 67.5481 27.7688 65.078 27.7688ZM97.0021 21.5666C97.0021 14.6931 93.6727 9.26945 87.3094 9.26945C80.919 9.26945 77.0527 14.6933 77.0527 21.513C77.0527 29.5945 81.6174 33.6757 88.1684 33.6757C91.3636 33.6757 93.7801 32.9507 95.6058 31.9305V26.5605C93.7803 27.4735 91.6859 28.0374 89.0278 28.0374C86.4233 28.0374 84.1142 27.1244 83.819 23.9562H96.9485C96.9485 23.607 97.0021 22.2109 97.0021 21.5666ZM83.7384 19.0159C83.7384 15.9819 85.5911 14.7199 87.2826 14.7199C88.9203 14.7199 90.6657 15.9819 90.6657 19.0159H83.7384Z" fill="#154444" fill-opacity="0.86"/>
</g>
<defs>
<clipPath id="clip0_34_137">
<rect width="96.6583" height="40.4032" fill="white" transform="translate(0.34375 0.784424)"/>
</clipPath>
</defs>
</svg>
