<svg width="51" height="49" viewBox="0 0 51 49" fill="none" xmlns="http://www.w3.org/2000/svg">
<path d="M47.5795 17.1898C46.9197 15.1468 47.201 12.0801 45.4861 9.71222C43.7578 7.32569 40.7519 6.64737 39.0545 5.40597C37.375 4.17765 35.8125 1.5047 32.9874 0.582821C30.242 -0.313078 27.4346 0.902645 25.2578 0.902645C23.0813 0.902645 20.2741 -0.313371 17.5282 0.582723C14.7036 1.5044 13.1398 4.17794 11.4614 5.40567C9.76592 6.64561 6.75771 7.32579 5.02969 9.71192C3.31631 12.0778 3.59473 15.1516 2.93613 17.1897C2.30938 19.1294 0.257812 21.4574 0.257812 24.4723C0.257812 27.489 2.30703 29.808 2.93613 31.7548C3.5959 33.7978 3.31465 36.8645 5.02949 39.2323C6.75771 41.619 9.76357 42.2972 11.4611 43.5387C13.1403 44.7668 14.7031 47.44 17.5282 48.3617C20.2718 49.257 23.0836 48.0419 25.2578 48.0419C27.429 48.0419 30.2474 49.2558 32.9874 48.3618C35.8121 47.4402 37.3749 44.7672 39.0542 43.5389C40.7497 42.2989 43.7579 41.6188 45.4859 39.2326C47.1994 36.8666 46.9208 33.7932 47.5795 31.7549C48.2062 29.815 50.2578 27.487 50.2578 24.4723C50.2578 21.4558 48.2091 19.1374 47.5795 17.1898ZM43.8626 30.5537C43.0936 32.9341 43.295 35.5981 42.3224 36.9412C41.3366 38.3023 38.7469 38.9239 36.7485 40.3857C34.7721 41.8311 33.3868 44.1224 31.7757 44.6481C30.2515 45.1455 27.7675 44.1355 25.2579 44.1355C22.73 44.1355 20.2716 45.1477 18.74 44.6481C17.1291 44.1224 15.7458 41.8326 13.7672 40.3856C11.7807 38.9327 9.17617 38.2983 8.19326 36.941C7.22373 35.6024 7.41758 32.9199 6.65322 30.5538C5.904 28.2356 4.16406 26.2282 4.16406 24.4723C4.16406 22.7146 5.90244 20.7142 6.65303 18.3908C7.42207 16.0106 7.22061 13.3464 8.19326 12.0033C9.17842 10.6432 11.7701 10.0194 13.7672 8.5589C15.7499 7.1088 17.1265 4.82296 18.7398 4.29649C20.2628 3.79962 22.7549 4.80909 25.2577 4.80909C27.7902 4.80909 30.2425 3.7962 31.7756 4.29649C33.3863 4.82208 34.7708 7.1127 36.7485 8.55899C38.7348 10.0118 41.3395 10.6463 42.3224 12.0034C43.2921 13.3424 43.0972 16.0221 43.8624 18.3906V18.3907C44.6116 20.709 46.3516 22.7163 46.3516 24.4723C46.3516 26.23 44.6132 28.2304 43.8626 30.5537ZM34.2562 18.2032C35.0189 18.966 35.0189 20.2026 34.2562 20.9653L24.4802 30.7413C23.7174 31.5041 22.4807 31.504 21.718 30.7413L16.2596 25.2829C15.4968 24.5201 15.4967 23.2835 16.2595 22.5208C17.0223 21.7581 18.2591 21.758 19.0216 22.5208L23.099 26.5982L31.4938 18.2033C32.2566 17.4405 33.4934 17.4405 34.2562 18.2032Z" fill="#244D4D"/>
</svg>
